<svg width="24" height="24" viewBox="0 0 24 24" fill="none" xmlns="http://www.w3.org/2000/svg">
<path d="M16.415 17.9741C16.2065 18.6126 15.8399 19.1902 15.347 19.6519C14.6157 20.3368 13.4881 20.6389 11.2331 21.2432C8.97798 21.8474 7.85044 22.1495 6.87466 21.922C6.10421 21.7424 5.40432 21.3383 4.86351 20.7609C4.17859 20.0296 3.87647 18.9021 3.27222 16.647L2.75458 14.7151C2.15033 12.46 1.84821 11.3325 2.07573 10.3567C2.25537 9.58627 2.65945 8.88638 3.23687 8.34557C3.96815 7.66065 5.09569 7.35853 7.35077 6.75428C7.77741 6.63996 8.16368 6.53646 8.51621 6.44531" fill="#E2E2E8"/>
<path d="M11.7041 1.3457C12.3324 1.1992 12.9724 1.23406 13.7061 1.36523C14.4304 1.49476 15.3119 1.73154 16.4268 2.03027C17.5417 2.32905 18.4241 2.56444 19.1162 2.81445C19.8171 3.06766 20.3885 3.3578 20.8594 3.79883C21.545 4.44096 22.025 5.27167 22.2383 6.18652C22.3848 6.81483 22.3499 7.45485 22.2188 8.18848C22.0892 8.91284 21.8524 9.79426 21.5537 10.9092L21.0361 12.8418C20.7375 13.9566 20.5019 14.8382 20.252 15.5303C19.9988 16.2311 19.7085 16.8026 19.2676 17.2734C18.6255 17.959 17.7946 18.439 16.8799 18.6523C16.757 18.681 16.633 18.7033 16.5068 18.7188C15.9339 18.7894 15.3352 18.726 14.6553 18.5908C13.9781 18.4562 13.1632 18.2376 12.1562 17.9678C11.0415 17.6691 10.1598 17.4336 9.46777 17.1836C8.76686 16.9304 8.19549 16.6402 7.72461 16.1992C7.03899 15.5571 6.55906 14.7264 6.3457 13.8115C6.1992 13.1832 6.23405 12.5432 6.36523 11.8096C6.49476 11.0852 6.73153 10.2038 7.03027 9.08887L7.54785 7.15625C7.6346 6.83249 7.716 6.52985 7.79297 6.24805C8.23637 4.62473 8.57973 3.5112 9.31641 2.72461C9.95852 2.039 10.7893 1.55907 11.7041 1.3457Z" fill="#E2E2E8" stroke="white" stroke-width="1.5"/>
<path d="M11.7769 10L16.6065 11.2941" stroke="white" stroke-width="1.5" stroke-linecap="round"/>
<path d="M11 12.8975L13.8978 13.6739" stroke="white" stroke-width="1.5" stroke-linecap="round"/>
</svg>
