<svg width="24" height="24" viewBox="0 0 24 24" fill="none" xmlns="http://www.w3.org/2000/svg">
<path fill-rule="evenodd" clip-rule="evenodd" d="M12.0001 22C7.28605 22 4.92903 22 3.46457 20.5355C2.0001 19.0711 2.0001 16.714 2.0001 12C2.0001 7.28595 2.0001 4.92893 3.46457 3.46447C4.92903 2 7.28605 2 12.0001 2C16.7141 2 19.0712 2 20.5356 3.46447C22.0001 4.92893 22.0001 7.28595 22.0001 12C22.0001 16.714 22.0001 19.0711 20.5356 20.5355C19.0712 22 16.7141 22 12.0001 22ZM12.0001 7.75C11.3788 7.75 10.8751 8.25368 10.8751 8.875C10.8751 9.28921 10.5393 9.625 10.1251 9.625C9.71089 9.625 9.3751 9.28921 9.3751 8.875C9.3751 7.42525 10.5504 6.25 12.0001 6.25C13.4498 6.25 14.6251 7.42525 14.6251 8.875C14.6251 9.58584 14.3416 10.232 13.8831 10.704C13.7908 10.7989 13.7028 10.8869 13.6188 10.9708C13.403 11.1864 13.2139 11.3753 13.048 11.5885C12.829 11.8699 12.7501 12.0768 12.7501 12.25V13C12.7501 13.4142 12.4143 13.75 12.0001 13.75C11.5859 13.75 11.2501 13.4142 11.2501 13V12.25C11.2501 11.5948 11.5551 11.0644 11.8643 10.6672C12.093 10.3733 12.3805 10.0863 12.6139 9.85346C12.6843 9.78321 12.7497 9.71789 12.8071 9.65877C13.0047 9.45543 13.1251 9.18004 13.1251 8.875C13.1251 8.25368 12.6214 7.75 12.0001 7.75ZM12.0001 17C12.5524 17 13.0001 16.5523 13.0001 16C13.0001 15.4477 12.5524 15 12.0001 15C11.4478 15 11.0001 15.4477 11.0001 16C11.0001 16.5523 11.4478 17 12.0001 17Z" fill="#E2E2E8"/>
</svg>
