<svg width="18" height="18" viewBox="0 0 18 18" fill="none" xmlns="http://www.w3.org/2000/svg">
<g filter="url(#filter0_ii_101_26321)">
<path d="M10.0123 10.0125L12.4874 12.4875C13.0466 13.0467 13.0466 13.9533 12.4874 14.5125L10.0123 16.9875C9.45309 17.5467 8.54644 17.5467 7.98724 16.9875L5.51218 14.5125C4.95298 13.9533 4.95298 13.0467 5.51218 12.4875L7.98724 10.0125C8.54644 9.45329 9.45309 9.45329 10.0123 10.0125Z" fill="#C2BAF2"/>
<path d="M10.0123 10.0125L12.4874 12.4875C13.0466 13.0467 13.0466 13.9533 12.4874 14.5125L10.0123 16.9875C9.45309 17.5467 8.54644 17.5467 7.98724 16.9875L5.51218 14.5125C4.95298 13.9533 4.95298 13.0467 5.51218 12.4875L7.98724 10.0125C8.54644 9.45329 9.45309 9.45329 10.0123 10.0125Z" fill="url(#paint0_linear_101_26321)"/>
</g>
<g filter="url(#filter1_ii_101_26321)">
<path d="M5.5126 5.5126L7.98766 7.98762C8.54686 8.54681 8.54686 9.45344 7.98766 10.0126L5.5126 12.4876C4.95339 13.0468 4.04675 13.0468 3.48755 12.4876L1.01249 10.0126C0.453283 9.45344 0.453283 8.54681 1.01249 7.98762L3.48755 5.5126C4.04675 4.95341 4.95339 4.95341 5.5126 5.5126Z" fill="#C2BAF2"/>
<path d="M5.5126 5.5126L7.98766 7.98762C8.54686 8.54681 8.54686 9.45344 7.98766 10.0126L5.5126 12.4876C4.95339 13.0468 4.04675 13.0468 3.48755 12.4876L1.01249 10.0126C0.453283 9.45344 0.453283 8.54681 1.01249 7.98762L3.48755 5.5126C4.04675 4.95341 4.95339 4.95341 5.5126 5.5126Z" fill="url(#paint1_linear_101_26321)"/>
</g>
<path d="M5.5126 5.5126L7.98766 7.98762C8.54686 8.54681 8.54686 9.45344 7.98766 10.0126L5.5126 12.4876C4.95339 13.0468 4.04675 13.0468 3.48755 12.4876L1.01249 10.0126C0.453283 9.45344 0.453283 8.54681 1.01249 7.98762L3.48755 5.5126C4.04675 4.95341 4.95339 4.95341 5.5126 5.5126Z" fill="url(#paint2_linear_101_26321)"/>
<path d="M5.5126 5.5126L7.98766 7.98762C8.54686 8.54681 8.54686 9.45344 7.98766 10.0126L5.5126 12.4876C4.95339 13.0468 4.04675 13.0468 3.48755 12.4876L1.01249 10.0126C0.453283 9.45344 0.453283 8.54681 1.01249 7.98762L3.48755 5.5126C4.04675 4.95341 4.95339 4.95341 5.5126 5.5126Z" fill="url(#paint3_linear_101_26321)"/>
<g filter="url(#filter2_ii_101_26321)">
<path d="M14.5124 5.51236L16.9875 7.98737C17.5467 8.54656 17.5467 9.45319 16.9875 10.0124L14.5124 12.4874C13.9532 13.0466 13.0466 13.0466 12.4874 12.4874L10.0123 10.0124C9.4531 9.45319 9.4531 8.54656 10.0123 7.98737L12.4874 5.51235C13.0466 4.95316 13.9532 4.95316 14.5124 5.51236Z" fill="#C2BAF2"/>
<path d="M14.5124 5.51236L16.9875 7.98737C17.5467 8.54656 17.5467 9.45319 16.9875 10.0124L14.5124 12.4874C13.9532 13.0466 13.0466 13.0466 12.4874 12.4874L10.0123 10.0124C9.4531 9.45319 9.4531 8.54656 10.0123 7.98737L12.4874 5.51235C13.0466 4.95316 13.9532 4.95316 14.5124 5.51236Z" fill="url(#paint4_linear_101_26321)"/>
</g>
<g filter="url(#filter3_ii_101_26321)">
<path d="M10.0128 1.01248L12.4878 3.48749C13.047 4.04669 13.047 4.95331 12.4878 5.51251L10.0128 7.98752C9.45358 8.54671 8.54693 8.54671 7.98773 7.98752L5.51267 5.51251C4.95347 4.95331 4.95347 4.04669 5.51267 3.48749L7.98773 1.01248C8.54693 0.453285 9.45358 0.453285 10.0128 1.01248Z" fill="#C2BAF2"/>
<path d="M10.0128 1.01248L12.4878 3.48749C13.047 4.04669 13.047 4.95331 12.4878 5.51251L10.0128 7.98752C9.45358 8.54671 8.54693 8.54671 7.98773 7.98752L5.51267 5.51251C4.95347 4.95331 4.95347 4.04669 5.51267 3.48749L7.98773 1.01248C8.54693 0.453285 9.45358 0.453285 10.0128 1.01248Z" fill="url(#paint5_linear_101_26321)"/>
</g>
<path d="M10.0127 1.01248L12.4878 3.48749C13.047 4.04669 13.047 4.95331 12.4878 5.51251L10.0127 7.98752C9.45355 8.54671 8.5469 8.54671 7.9877 7.98752L5.51264 5.51251C4.95344 4.95331 4.95344 4.04669 5.51264 3.48749L7.9877 1.01248C8.5469 0.453285 9.45355 0.453285 10.0127 1.01248Z" fill="url(#paint6_linear_101_26321)"/>
<path d="M10.0127 1.01248L12.4878 3.48749C13.047 4.04669 13.047 4.95331 12.4878 5.51251L10.0127 7.98752C9.45355 8.54671 8.5469 8.54671 7.9877 7.98752L5.51264 5.51251C4.95344 4.95331 4.95344 4.04669 5.51264 3.48749L7.9877 1.01248C8.5469 0.453285 9.45355 0.453285 10.0127 1.01248Z" fill="url(#paint7_linear_101_26321)"/>
<g filter="url(#filter4_d_101_26321)">
<path d="M9.00012 10.5909C9.87882 10.5909 10.5911 9.87862 10.5911 8.99994C10.5911 8.12125 9.87882 7.40894 9.00012 7.40894C8.12142 7.40894 7.40909 8.12125 7.40909 8.99994C7.40909 9.87862 8.12142 10.5909 9.00012 10.5909Z" fill="url(#paint8_radial_101_26321)"/>
<path d="M9.00012 10.5909C9.87882 10.5909 10.5911 9.87862 10.5911 8.99994C10.5911 8.12125 9.87882 7.40894 9.00012 7.40894C8.12142 7.40894 7.40909 8.12125 7.40909 8.99994C7.40909 9.87862 8.12142 10.5909 9.00012 10.5909Z" fill="url(#paint9_radial_101_26321)"/>
</g>
<defs>
<filter id="filter0_ii_101_26321" x="5.09277" y="7.43314" width="9.974" height="9.97372" filterUnits="userSpaceOnUse" color-interpolation-filters="sRGB">
<feFlood flood-opacity="0" result="BackgroundImageFix"/>
<feBlend mode="normal" in="SourceGraphic" in2="BackgroundImageFix" result="shape"/>
<feColorMatrix in="SourceAlpha" type="matrix" values="0 0 0 0 0 0 0 0 0 0 0 0 0 0 0 0 0 0 127 0" result="hardAlpha"/>
<feOffset dx="2.16"/>
<feGaussianBlur stdDeviation="1.44"/>
<feComposite in2="hardAlpha" operator="arithmetic" k2="-1" k3="1"/>
<feColorMatrix type="matrix" values="0 0 0 0 0.321569 0 0 0 0 0.737255 0 0 0 0 1 0 0 0 1 0"/>
<feBlend mode="normal" in2="shape" result="effect1_innerShadow_101_26321"/>
<feColorMatrix in="SourceAlpha" type="matrix" values="0 0 0 0 0 0 0 0 0 0 0 0 0 0 0 0 0 0 127 0" result="hardAlpha"/>
<feOffset dy="-2.16"/>
<feGaussianBlur stdDeviation="1.44"/>
<feComposite in2="hardAlpha" operator="arithmetic" k2="-1" k3="1"/>
<feColorMatrix type="matrix" values="0 0 0 0 0.133333 0 0 0 0 0.560784 0 0 0 0 1 0 0 0 1 0"/>
<feBlend mode="normal" in2="effect1_innerShadow_101_26321" result="effect2_innerShadow_101_26321"/>
</filter>
<filter id="filter1_ii_101_26321" x="0.593079" y="2.93326" width="9.974" height="9.97372" filterUnits="userSpaceOnUse" color-interpolation-filters="sRGB">
<feFlood flood-opacity="0" result="BackgroundImageFix"/>
<feBlend mode="normal" in="SourceGraphic" in2="BackgroundImageFix" result="shape"/>
<feColorMatrix in="SourceAlpha" type="matrix" values="0 0 0 0 0 0 0 0 0 0 0 0 0 0 0 0 0 0 127 0" result="hardAlpha"/>
<feOffset dx="2.16"/>
<feGaussianBlur stdDeviation="1.44"/>
<feComposite in2="hardAlpha" operator="arithmetic" k2="-1" k3="1"/>
<feColorMatrix type="matrix" values="0 0 0 0 0.321569 0 0 0 0 0.737255 0 0 0 0 1 0 0 0 1 0"/>
<feBlend mode="normal" in2="shape" result="effect1_innerShadow_101_26321"/>
<feColorMatrix in="SourceAlpha" type="matrix" values="0 0 0 0 0 0 0 0 0 0 0 0 0 0 0 0 0 0 127 0" result="hardAlpha"/>
<feOffset dy="-2.16"/>
<feGaussianBlur stdDeviation="1.44"/>
<feComposite in2="hardAlpha" operator="arithmetic" k2="-1" k3="1"/>
<feColorMatrix type="matrix" values="0 0 0 0 0.133333 0 0 0 0 0.560784 0 0 0 0 1 0 0 0 1 0"/>
<feBlend mode="normal" in2="effect1_innerShadow_101_26321" result="effect2_innerShadow_101_26321"/>
</filter>
<filter id="filter2_ii_101_26321" x="9.5929" y="2.93302" width="9.974" height="9.97372" filterUnits="userSpaceOnUse" color-interpolation-filters="sRGB">
<feFlood flood-opacity="0" result="BackgroundImageFix"/>
<feBlend mode="normal" in="SourceGraphic" in2="BackgroundImageFix" result="shape"/>
<feColorMatrix in="SourceAlpha" type="matrix" values="0 0 0 0 0 0 0 0 0 0 0 0 0 0 0 0 0 0 127 0" result="hardAlpha"/>
<feOffset dx="2.16"/>
<feGaussianBlur stdDeviation="1.44"/>
<feComposite in2="hardAlpha" operator="arithmetic" k2="-1" k3="1"/>
<feColorMatrix type="matrix" values="0 0 0 0 0.321569 0 0 0 0 0.737255 0 0 0 0 1 0 0 0 1 0"/>
<feBlend mode="normal" in2="shape" result="effect1_innerShadow_101_26321"/>
<feColorMatrix in="SourceAlpha" type="matrix" values="0 0 0 0 0 0 0 0 0 0 0 0 0 0 0 0 0 0 127 0" result="hardAlpha"/>
<feOffset dy="-2.16"/>
<feGaussianBlur stdDeviation="1.44"/>
<feComposite in2="hardAlpha" operator="arithmetic" k2="-1" k3="1"/>
<feColorMatrix type="matrix" values="0 0 0 0 0.133333 0 0 0 0 0.560784 0 0 0 0 1 0 0 0 1 0"/>
<feBlend mode="normal" in2="effect1_innerShadow_101_26321" result="effect2_innerShadow_101_26321"/>
</filter>
<filter id="filter3_ii_101_26321" x="5.09326" y="-1.56686" width="9.974" height="9.97372" filterUnits="userSpaceOnUse" color-interpolation-filters="sRGB">
<feFlood flood-opacity="0" result="BackgroundImageFix"/>
<feBlend mode="normal" in="SourceGraphic" in2="BackgroundImageFix" result="shape"/>
<feColorMatrix in="SourceAlpha" type="matrix" values="0 0 0 0 0 0 0 0 0 0 0 0 0 0 0 0 0 0 127 0" result="hardAlpha"/>
<feOffset dx="2.16"/>
<feGaussianBlur stdDeviation="1.44"/>
<feComposite in2="hardAlpha" operator="arithmetic" k2="-1" k3="1"/>
<feColorMatrix type="matrix" values="0 0 0 0 0.321569 0 0 0 0 0.737255 0 0 0 0 1 0 0 0 1 0"/>
<feBlend mode="normal" in2="shape" result="effect1_innerShadow_101_26321"/>
<feColorMatrix in="SourceAlpha" type="matrix" values="0 0 0 0 0 0 0 0 0 0 0 0 0 0 0 0 0 0 127 0" result="hardAlpha"/>
<feOffset dy="-2.16"/>
<feGaussianBlur stdDeviation="1.44"/>
<feComposite in2="hardAlpha" operator="arithmetic" k2="-1" k3="1"/>
<feColorMatrix type="matrix" values="0 0 0 0 0.133333 0 0 0 0 0.560784 0 0 0 0 1 0 0 0 1 0"/>
<feBlend mode="normal" in2="effect1_innerShadow_101_26321" result="effect2_innerShadow_101_26321"/>
</filter>
<filter id="filter4_d_101_26321" x="6.32909" y="7.04894" width="4.62207" height="4.62201" filterUnits="userSpaceOnUse" color-interpolation-filters="sRGB">
<feFlood flood-opacity="0" result="BackgroundImageFix"/>
<feColorMatrix in="SourceAlpha" type="matrix" values="0 0 0 0 0 0 0 0 0 0 0 0 0 0 0 0 0 0 127 0" result="hardAlpha"/>
<feOffset dx="-0.36" dy="0.36"/>
<feGaussianBlur stdDeviation="0.36"/>
<feComposite in2="hardAlpha" operator="out"/>
<feColorMatrix type="matrix" values="0 0 0 0 0.192157 0 0 0 0 0.611765 0 0 0 0 1 0 0 0 1 0"/>
<feBlend mode="normal" in2="BackgroundImageFix" result="effect1_dropShadow_101_26321"/>
<feBlend mode="normal" in="SourceGraphic" in2="effect1_dropShadow_101_26321" result="shape"/>
</filter>
<linearGradient id="paint0_linear_101_26321" x1="11.2498" y1="11.25" x2="9.70463" y2="12.9415" gradientUnits="userSpaceOnUse">
<stop stop-color="#D9D4F7"/>
<stop offset="1" stop-color="#C5BEF3" stop-opacity="0"/>
</linearGradient>
<linearGradient id="paint1_linear_101_26321" x1="6.75013" y1="6.75011" x2="5.20493" y2="8.44158" gradientUnits="userSpaceOnUse">
<stop stop-color="#D9D4F7"/>
<stop offset="1" stop-color="#C5BEF3" stop-opacity="0"/>
</linearGradient>
<linearGradient id="paint2_linear_101_26321" x1="7.26933" y1="11.748" x2="6.00088" y2="10.3557" gradientUnits="userSpaceOnUse">
<stop offset="0.192" stop-color="#9284E1"/>
<stop offset="1" stop-color="#B7ACEF" stop-opacity="0"/>
</linearGradient>
<linearGradient id="paint3_linear_101_26321" x1="1.48275" y1="5.78598" x2="2.74725" y2="7.24513" gradientUnits="userSpaceOnUse">
<stop stop-color="#DBD7F8"/>
<stop offset="1" stop-color="#DBD7F8" stop-opacity="0"/>
</linearGradient>
<linearGradient id="paint4_linear_101_26321" x1="15.7499" y1="6.74986" x2="13.8312" y2="8.4661" gradientUnits="userSpaceOnUse">
<stop offset="0.176" stop-color="#D9D4F7"/>
<stop offset="1" stop-color="#C5BEF3" stop-opacity="0"/>
</linearGradient>
<linearGradient id="paint5_linear_101_26321" x1="11.0726" y1="2.62461" x2="9.5313" y2="4.1659" gradientUnits="userSpaceOnUse">
<stop offset="0.03" stop-color="#D9D4F7"/>
<stop offset="1" stop-color="#C5BEF3" stop-opacity="0"/>
</linearGradient>
<linearGradient id="paint6_linear_101_26321" x1="11.6446" y1="7.07458" x2="10.501" y2="5.85561" gradientUnits="userSpaceOnUse">
<stop offset="0.192" stop-color="#E6E2FA"/>
<stop offset="1" stop-color="#E6E2FA" stop-opacity="0"/>
</linearGradient>
<linearGradient id="paint7_linear_101_26321" x1="5.9829" y1="1.28585" x2="7.2474" y2="2.74501" gradientUnits="userSpaceOnUse">
<stop stop-color="#DBD7F8"/>
<stop offset="1" stop-color="#DBD7F8" stop-opacity="0"/>
</linearGradient>
<radialGradient id="paint8_radial_101_26321" cx="0" cy="0" r="1" gradientTransform="matrix(-1.66249 1.17687 -1.17689 -1.66246 9.56365 8.64557)" gradientUnits="userSpaceOnUse">
<stop offset="0.134" stop-color="#E0DCFA"/>
<stop offset="1" stop-color="#A196E8"/>
</radialGradient>
<radialGradient id="paint9_radial_101_26321" cx="0" cy="0" r="1" gradientUnits="userSpaceOnUse" gradientTransform="translate(9.00012 9.79703) rotate(-90) scale(2.38877 2.38881)">
<stop offset="0.71" stop-color="#DDD9F9" stop-opacity="0"/>
<stop offset="1" stop-color="#DDD9F9"/>
</radialGradient>
</defs>
</svg>
