<svg width="17" height="17" viewBox="0 0 17 17" fill="none" xmlns="http://www.w3.org/2000/svg">
<path d="M5.69032 2.59097C5.93535 1.96968 6.81465 1.96968 7.05968 2.59098L7.81901 4.51633C7.89381 4.70601 8.04397 4.85616 8.23367 4.93097L10.1591 5.69032C10.7803 5.93535 10.7803 6.81465 10.1591 7.05968L8.23367 7.81901C8.04397 7.89381 7.89381 8.04397 7.81901 8.23367L7.05968 10.1591C6.81464 10.7803 5.93535 10.7803 5.69032 10.1591L4.93097 8.23367C4.85616 8.04397 4.70601 7.89381 4.51633 7.81901L2.59097 7.05968C1.96968 6.81464 1.96968 5.93535 2.59098 5.69032L4.51633 4.93097C4.70601 4.85616 4.85616 4.70601 4.93097 4.51633L5.69032 2.59097Z" stroke="#F9F9FB" stroke-width="1.0625"/>
<path d="M11.6793 9.45493C11.809 9.12619 12.2743 9.12619 12.404 9.45493L12.971 10.8928C13.0106 10.9932 13.0901 11.0727 13.1905 11.1123L14.6284 11.6794C14.9571 11.809 14.9571 12.2744 14.6284 12.404L13.1905 12.9711C13.0901 13.0107 13.0106 13.0902 12.971 13.1905L12.404 14.6285C12.2743 14.9572 11.809 14.9572 11.6793 14.6285L11.1122 13.1905C11.0726 13.0902 10.9932 13.0107 10.8928 12.9711L9.45488 12.404C9.12614 12.2744 9.12614 11.809 9.45488 11.6794L10.8928 11.1123C10.9932 11.0727 11.0726 10.9932 11.1122 10.8928L11.6793 9.45493Z" stroke="#F9F9FB" stroke-width="1.0625"/>
</svg>
